# xmcd
#
# Track frame offsets:
#	150
#	12621
#	24956
#	36108
#	50405
#	67109
#	89011
#	119220
#	134689
#	150073
#	162704
#
# Disc length: 2410 seconds
#
# Revision: 1
# Processed by: cddbd v1.5.2PL0 Copyright (c) Steve Scherf et al.
# Submitted via: audiograbber 1.83.01
#
DISCID=9b09680b
DTITLE=Diana Ross - Everything Is Everything
DYEAR=1971
DGENRE=Soul
TTITLE0=My Place
TTITLE1=Ain't No Sad Song
TTITLE2=Everything Is Everything
TTITLE3=Baby It's Love
TTITLE4=I'm Still Waiting
TTITLE5=Doobedoo'doobe, Doobedoo'ndoobe
TTITLE6=Everything Is Everything
TTITLE7=The Long And Winding Road
TTITLE8=I Love You (call me)
TTITLE9=How About You
TTITLE10=(they long to be) Close To You
EXTD=
EXTT0=
EXTT1=
EXTT2=
EXTT3=
EXTT4=
EXTT5=
EXTT6=
EXTT7=
EXTT8=
EXTT9=
EXTT10=
PLAYORDER=
